HIERARCHY
ROOT SpineBase
{
  OFFSET 0.000000 0.000000 0.000000
  CHANNELS 6 Xposition Yposition Zposition Zrotation Xrotation Yrotation
  JOINT SpineMid
  {
    OFFSET -0.000000 27.855139 0.000000
    CHANNELS 3 Zrotation Xrotation Yrotation
    JOINT SpineShoulder
    {
      OFFSET -0.037170 20.433181 -0.583895
      CHANNELS 3 Zrotation Xrotation Yrotation
      JOINT Neck
      {
        OFFSET -0.024424 6.660882 -0.480632
        CHANNELS 3 Zrotation Xrotation Yrotation
        JOINT Head
        {
          OFFSET -2.343751 10.470773 -2.500746
          CHANNELS 3 Zrotation Xrotation Yrotation
          End Site
          {
            OFFSET 0 0 0
          }
        }
      }
      JOINT ShoulderLeft
      {
        OFFSET -14.876353 -5.464302 4.653244
        CHANNELS 3 Zrotation Xrotation Yrotation
        JOINT ElbowLeft
        {
          OFFSET -9.190301 -27.318247 -0.410335
          CHANNELS 3 Zrotation Xrotation Yrotation
          JOINT WristLeft
          {
            OFFSET 4.580971 -11.602952 -21.827455
            CHANNELS 3 Zrotation Xrotation Yrotation
            JOINT HandLeft
            {
              OFFSET 2.094614 -4.298513 -0.654305
              CHANNELS 3 Zrotation Xrotation Yrotation
              JOINT HandTipLeft
              {
                OFFSET 2.211329 -4.819691 -5.480146
                CHANNELS 3 Zrotation Xrotation Yrotation
                End Site
                {
                  OFFSET 0 0 0
                }
              }
              JOINT ThumbLeft
              {
                OFFSET -5.374131 -4.237625 -1.574964
                CHANNELS 3 Zrotation Xrotation Yrotation
                End Site
                {
                  OFFSET 0 0 0
                }
              }
            }
          }
        }
      }
      JOINT ShoulderRight
      {
        OFFSET 17.311950 -0.525390 -6.011788
        CHANNELS 3 Zrotation Xrotation Yrotation
        JOINT ElbowRight
        {
          OFFSET 15.564199 -17.675101 -8.977144
          CHANNELS 3 Zrotation Xrotation Yrotation
          JOINT WristRight
          {
            OFFSET -6.864497 -21.214925 -14.353333
            CHANNELS 3 Zrotation Xrotation Yrotation
            JOINT HandRight
            {
              OFFSET -0.577214 0.804355 -1.398868
              CHANNELS 3 Zrotation Xrotation Yrotation
              JOINT HandTipRight
              {
                OFFSET -0.961494 -6.229650 -0.084374
                CHANNELS 3 Zrotation Xrotation Yrotation
                End Site
                {
                  OFFSET 0 0 0
                }
              }
              JOINT ThumbRight
              {
                OFFSET -4.416301 0.272111 1.539837
                CHANNELS 3 Zrotation Xrotation Yrotation
                End Site
                {
                  OFFSET 0 0 0
                }
              }
            }
          }
        }
      }
    }
  }
  JOINT HipLeft
  {
    OFFSET -7.786465 -0.354337 -1.480182
    CHANNELS 3 Zrotation Xrotation Yrotation
    JOINT KneeLeft
    {
      OFFSET -19.494452 -11.015386 -21.614720
      CHANNELS 3 Zrotation Xrotation Yrotation
      JOINT AnkleLeft
      {
        OFFSET -0.697287 -38.050103 1.527675
        CHANNELS 3 Zrotation Xrotation Yrotation
        JOINT FootLeft
        {
          OFFSET -0.720164 -9.493971 -9.142397
          CHANNELS 3 Zrotation Xrotation Yrotation
          End Site
          {
            OFFSET 0 0 0
          }
        }
      }
    }
  }
  JOINT HipRight
  {
    OFFSET 7.455343 -0.540792 -5.540771
    CHANNELS 3 Zrotation Xrotation Yrotation
    JOINT KneeRight
    {
      OFFSET 2.139056 -10.244439 -30.130339
      CHANNELS 3 Zrotation Xrotation Yrotation
      JOINT AnkleRight
      {
        OFFSET 3.921305 -33.563196 8.442770
        CHANNELS 3 Zrotation Xrotation Yrotation
        JOINT FootRight
        {
          OFFSET -1.572300 -9.402765 -6.363163
          CHANNELS 3 Zrotation Xrotation Yrotation
          End Site
          {
            OFFSET 0 0 0
          }
        }
      }
    }
  }
}
MOTION
Frames: 13
Frame Time: 0.033333
19.331242 60.134892 389.278831 0.000000 0.000000 14.917754 -0.000000 0.000000 -14.917754 -0.000000 0.000000 0.000000 -0.000000 0.000000 0.000000 0.000000 0.000000 0.000000 -0.000000 0.000000 0.000000 -0.000000 0.000000 0.000000 -0.000000 0.000000 0.000000 -0.000000 0.000000 0.000000 0.000000 0.000000 0.000000 0.000000 0.000000 0.000000 -0.000000 0.000000 0.000000 -0.000000 0.000000 0.000000 -0.000000 0.000000 0.000000 -0.000000 0.000000 0.000000 0.000000 0.000000 0.000000 0.000000 0.000000 0.000000 -0.000000 0.000000 -14.917754 -0.000000 0.000000 0.000000 -0.000000 0.000000 0.000000 0.000000 0.000000 0.000000 -0.000000 0.000000 -14.917754 -0.000000 0.000000 0.000000 -0.000000 0.000000 0.000000 0.000000 0.000000 0.000000
19.334952 60.138316 389.282591 -0.004812 0.013247 15.001775 0.001219 -0.014041 -15.001774 -0.000000 0.000000 0.000000 -0.000000 0.000000 0.000000 0.000000 0.000000 0.000000 -0.000000 0.000000 0.000000 -0.000000 0.000000 0.000000 -7.184647 -0.838625 0.654493 2.607356 -3.067868 2.732014 0.000000 0.000000 0.000000 0.000000 0.000000 0.000000 0.464753 -0.674249 -0.826549 -0.773136 1.990791 0.600415 30.292272 -38.344816 20.366486 -21.723664 38.686743 -0.702115 0.000000 0.000000 0.000000 0.000000 0.000000 0.000000 0.001219 -0.014041 -15.001774 -0.000000 0.000000 0.000000 -0.000000 0.000000 0.000000 0.000000 0.000000 0.000000 0.001219 -0.014041 -15.001774 -0.000000 0.000000 0.000000 0.700991 3.630202 -1.081714 0.000000 0.000000 0.000000
19.337261 60.142128 389.286884 -0.008023 0.022866 15.080130 0.001798 -0.024166 -15.080128 -0.000000 0.000000 0.000000 -0.000000 0.000000 0.000000 0.000000 0.000000 0.000000 -0.833221 0.996688 -0.314736 0.838809 -0.991990 0.329245 -12.063573 -0.852237 1.411976 2.893099 -6.883705 5.424990 0.000000 0.000000 0.000000 0.000000 0.000000 0.000000 0.841303 -1.211729 -1.483755 -1.481136 3.620246 1.110171 67.957755 -51.558724 53.431134 -45.401011 60.598405 13.264093 0.000000 0.000000 0.000000 0.000000 0.000000 0.000000 0.001798 -0.024166 -15.080128 -0.000000 0.000000 0.000000 -0.000000 0.000000 0.000000 0.000000 0.000000 0.000000 0.001798 -0.024166 -15.080128 -0.000000 0.000000 0.000000 1.273833 6.361154 -1.928528 0.000000 0.000000 0.000000
19.338169 60.146329 389.291711 -0.009634 0.028856 15.152753 0.001756 -0.030371 -15.152750 -0.000000 0.000000 0.000000 0.688022 -0.839071 -0.018401 0.000000 0.000000 0.000000 -1.053852 1.263041 -0.396185 1.405947 -1.474393 -0.303843 -15.656359 -0.195435 3.132981 1.814317 -10.866636 7.789951 0.000000 0.000000 0.000000 0.000000 0.000000 0.000000 1.132219 -1.605789 -1.969995 -2.101187 4.883233 1.519553 89.700297 -51.481284 73.164406 -66.005919 67.756328 30.208546 0.000000 0.000000 0.000000 0.000000 0.000000 0.000000 0.001756 -0.030371 -15.152750 -0.000000 0.000000 0.000000 -0.000000 0.000000 0.000000 0.000000 0.000000 0.000000 0.001756 -0.030371 -15.152750 -0.000000 0.000000 0.000000 1.716982 8.359033 -2.566806 0.000000 0.000000 0.000000
19.337676 60.150919 389.297070 -0.009642 0.031214 15.219593 0.001109 -0.032651 -15.219590 -0.000000 0.000000 0.000000 0.860137 -1.040756 -0.019647 0.000000 0.000000 0.000000 -1.150265 1.380443 -0.431751 1.296474 -2.151073 -0.094436 -17.530455 1.585006 4.338197 -0.015062 -14.606326 9.578864 0.000000 0.000000 0.000000 0.000000 0.000000 0.000000 1.339549 -1.851663 -2.284331 -2.614744 5.777246 1.819492 100.848074 -49.742647 83.164613 -81.253804 70.033338 43.772740 0.000000 0.000000 0.000000 0.000000 0.000000 0.000000 0.001109 -0.032651 -15.219590 -0.000000 0.000000 0.000000 -0.000000 0.000000 0.000000 0.000000 0.000000 0.000000 0.001109 -0.032651 -15.219590 -0.000000 0.000000 0.000000 2.033059 9.744065 -3.016801 0.000000 0.000000 0.000000
19.335783 60.155898 389.302963 -0.008047 0.029939 15.280609 -0.000128 -0.031001 -15.280607 -0.000000 0.000000 0.000000 1.003555 -1.203266 -0.019036 0.000000 0.000000 0.000000 -1.122945 1.348945 -0.422271 0.902476 -2.928151 0.266163 -18.322470 4.254374 5.715112 -2.289756 -17.907718 10.623317 0.000000 0.000000 0.000000 0.000000 0.000000 0.000000 1.464610 -1.946293 -2.426309 -3.008164 6.301463 2.002375 107.439341 -48.268447 88.912181 -92.727619 70.748252 54.321985 0.000000 0.000000 0.000000 0.000000 0.000000 0.000000 -0.000128 -0.031001 -15.280607 -0.000000 0.000000 0.000000 -0.000000 0.000000 0.000000 0.000000 0.000000 0.000000 -0.000128 -0.031001 -15.280607 -0.000000 0.000000 0.000000 2.225539 10.597506 -3.292928 0.000000 0.000000 0.000000
19.329488 60.164355 389.308574 -0.002517 0.016343 15.350729 -0.001899 -0.016426 -15.350729 -0.000000 0.000000 0.000000 1.104125 -1.240434 -0.001997 0.000000 0.000000 0.000000 -0.873911 0.988008 -0.310890 -0.313487 -4.415790 1.252099 -17.704557 10.904657 8.443830 -6.213629 -23.127113 9.057997 0.000000 0.000000 0.000000 0.000000 0.000000 0.000000 1.410431 -1.725507 -2.207381 -2.975054 5.997460 1.840122 111.894581 -46.104821 92.870754 -106.316594 71.025636 66.025608 0.000000 0.000000 0.000000 0.000000 0.000000 0.000000 -0.001899 -0.016426 -15.350729 -0.000000 0.000000 0.000000 -0.000000 0.000000 0.000000 0.000000 0.000000 0.000000 -0.001899 -0.016426 -15.350729 -0.000000 0.000000 0.000000 1.921184 9.459756 -2.890280 0.000000 0.000000 0.000000
19.323613 60.172829 389.317402 0.001750 0.011729 15.423044 -0.004806 -0.010841 -15.423044 -0.000000 0.000000 0.000000 1.171592 -1.278240 0.006729 0.000000 0.000000 0.000000 -0.000000 0.000000 0.000000 -2.198467 -5.076587 2.236370 -16.910933 16.359949 10.184372 -7.150584 -24.916377 6.696978 0.000000 0.000000 0.000000 0.000000 0.000000 0.000000 1.290834 -1.328075 -1.802776 -3.200622 5.692949 1.673113 119.091045 -44.538079 98.508276 -123.941338 69.086842 82.873935 0.000000 0.000000 0.000000 0.000000 0.000000 0.000000 -0.004806 -0.010841 -15.423044 -0.000000 0.000000 0.000000 -0.000000 0.000000 0.000000 0.000000 0.000000 0.000000 -0.004806 -0.010841 -15.423044 -0.000000 0.000000 0.000000 1.886039 9.450030 -2.863256 0.000000 0.000000 0.000000
19.318656 60.178025 389.327013 0.013592 0.005711 15.419492 -0.014621 -0.001891 -15.419493 -0.000000 0.000000 0.000000 1.108766 -1.365074 -0.027406 0.000000 0.000000 0.000000 -0.000000 0.000000 0.000000 -2.324338 -5.772283 2.201205 -13.597820 19.070085 10.439037 -12.334569 -24.978037 7.670525 0.000000 0.000000 0.000000 0.000000 0.000000 0.000000 1.244159 -1.067082 -1.552418 -3.233042 4.823714 1.682925 122.394522 -46.033840 100.425483 -128.943709 67.767698 89.351098 0.000000 0.000000 0.000000 0.000000 0.000000 0.000000 -0.014621 -0.001891 -15.419493 -0.000000 0.000000 0.000000 -0.000000 0.000000 0.000000 0.000000 0.000000 0.000000 -0.014621 -0.001891 -15.419493 -0.000000 0.000000 0.000000 1.856712 9.450222 -2.842033 0.000000 0.000000 0.000000
19.311026 60.181096 389.337580 0.024620 -0.004488 15.420363 -0.022540 0.010873 -15.420360 -0.000000 0.000000 0.000000 1.144464 -1.510231 -0.049373 0.000000 0.000000 0.000000 -0.000000 0.000000 0.000000 -2.470199 -5.538451 2.597913 -11.116477 20.194079 9.846031 -16.386466 -25.842063 7.977025 0.000000 0.000000 0.000000 0.000000 0.000000 0.000000 1.182800 -0.825648 -1.312113 -3.406901 4.786727 1.551011 125.083067 -45.506175 102.479629 -133.722783 67.076699 93.993143 0.000000 0.000000 0.000000 0.000000 0.000000 0.000000 -0.022540 0.010873 -15.420360 -0.598244 0.578891 -0.031609 0.598593 -0.578529 0.037653 0.000000 0.000000 0.000000 -0.022540 0.010873 -15.420360 -0.000000 0.000000 0.000000 1.839082 9.458630 -2.830595 0.000000 0.000000 0.000000
19.305245 60.179967 389.341358 0.043544 -0.004890 15.428975 -0.040674 0.016298 -15.428967 -0.000000 0.000000 0.000000 1.165295 -1.603662 -0.063996 0.000000 0.000000 0.000000 0.603068 -0.607045 0.198725 -4.060121 -7.167143 3.511214 -10.762137 27.440544 12.602850 -20.644774 -29.981631 3.983490 0.000000 0.000000 0.000000 0.000000 0.000000 0.000000 1.178935 -0.715040 -1.213899 -3.227943 4.411962 1.416510 114.854345 -48.831862 93.994329 -117.801086 70.098949 78.843201 0.000000 0.000000 0.000000 0.000000 0.000000 0.000000 -0.040674 0.016298 -15.428967 -0.643535 0.597294 -0.033433 0.643918 -0.596880 0.040141 0.000000 0.000000 0.000000 -0.040674 0.016298 -15.428967 -0.000000 0.000000 0.000000 1.837896 9.463093 -2.830445 0.000000 0.000000 0.000000
19.299920 60.180314 389.343843 0.087009 -0.009156 15.429895 -0.081437 0.031975 -15.429866 -0.000000 0.000000 0.000000 1.068238 -1.694936 -0.107874 0.000000 0.000000 0.000000 0.508665 -0.727174 0.240606 -4.021117 -7.234074 3.504646 -11.096465 28.697838 13.490587 -19.528933 -30.480821 1.899063 0.000000 0.000000 0.000000 0.000000 0.000000 0.000000 1.177920 -0.517665 -1.041738 -3.347570 4.180506 1.342405 103.830239 -56.428553 82.959498 -92.621085 69.638718 59.968397 0.000000 0.000000 0.000000 0.000000 0.000000 0.000000 -0.081437 0.031975 -15.429866 -0.647392 0.533650 -0.032760 0.647725 -0.533246 0.038789 0.000000 0.000000 0.000000 -0.081437 0.031975 -15.429866 -0.000000 0.000000 0.000000 1.850824 9.486676 -2.843567 0.000000 0.000000 0.000000
19.289040 60.174416 389.347965 0.132127 -0.019275 15.437484 -0.122229 0.053750 -15.437404 -0.000000 0.000000 0.000000 1.081212 -1.921679 -0.152880 0.000000 0.000000 0.000000 0.482904 -0.765271 0.253810 -3.710054 -6.174075 3.323939 -11.704962 26.583260 12.925284 -16.855185 -28.437489 3.232737 0.000000 0.000000 0.000000 0.000000 0.000000 0.000000 1.274555 -0.341447 -0.936466 -3.682585 4.236246 1.329280 79.824892 -64.941082 58.487163 -61.982360 64.505676 39.669121 0.000000 0.000000 0.000000 0.000000 0.000000 0.000000 -0.122229 0.053750 -15.437404 -0.646769 0.508590 -0.032419 0.647082 -0.508191 0.038160 0.000000 0.000000 0.000000 -0.122229 0.053750 -15.437404 -0.839658 0.018467 -0.209113 2.639373 9.501421 -2.623026 0.000000 0.000000 0.000000
